<svg xmlns="http://www.w3.org/2000/svg" xmlns:xlink="http://www.w3.org/1999/xlink" id="Camada_1" x="0px" y="0px" viewBox="0 0 252.4 137.8" style="enable-background:new 0 0 252.4 137.8;" xml:space="preserve"><style type="text/css">	.st0{fill-rule:evenodd;clip-rule:evenodd;fill:#6BBE9D;}	.st1{fill-rule:evenodd;clip-rule:evenodd;fill:#FFFFFF;}</style><g>	<path class="st0" d="M146.6,126.9c0-0.8,0.2-1.4,0.5-2c0.4-0.6,0.8-1.1,1.4-1.4c0.6-0.3,1.3-0.5,2-0.5c0.8,0,1.6,0.2,2.2,0.6  c0.6,0.4,1.1,1,1.4,1.7h-1.5c-0.2-0.4-0.5-0.7-0.8-0.9c-0.4-0.2-0.8-0.3-1.2-0.3c-0.5,0-1,0.1-1.4,0.3c-0.4,0.2-0.7,0.6-0.9,1  c-0.2,0.4-0.3,0.9-0.3,1.5c0,0.6,0.1,1.1,0.3,1.5c0.2,0.4,0.5,0.8,0.9,1c0.4,0.2,0.9,0.4,1.4,0.4c0.5,0,0.9-0.1,1.2-0.3  c0.4-0.2,0.6-0.5,0.8-0.9h1.5c-0.3,0.7-0.8,1.3-1.4,1.7c-0.6,0.4-1.4,0.6-2.2,0.6c-0.7,0-1.4-0.2-2-0.5c-0.6-0.3-1.1-0.8-1.4-1.4  C146.8,128.3,146.6,127.7,146.6,126.9L146.6,126.9z M161.3,127.6c0,0.2,0,0.4,0,0.6h-4.7c0,0.5,0.2,0.9,0.5,1.2  c0.3,0.3,0.7,0.4,1.2,0.4c0.7,0,1.2-0.3,1.5-0.9h1.4c-0.2,0.6-0.5,1-1,1.4c-0.5,0.4-1.1,0.5-1.8,0.5c-0.6,0-1.1-0.1-1.6-0.4  c-0.5-0.3-0.8-0.6-1.1-1.1c-0.3-0.5-0.4-1-0.4-1.7s0.1-1.2,0.4-1.7c0.3-0.5,0.6-0.8,1.1-1.1c0.5-0.3,1-0.4,1.6-0.4  c0.6,0,1.1,0.1,1.6,0.4c0.5,0.3,0.8,0.6,1.1,1.1C161.2,126.5,161.3,127,161.3,127.6L161.3,127.6z M160,127.2c0-0.5-0.2-0.8-0.5-1.1  c-0.3-0.3-0.7-0.4-1.2-0.4c-0.4,0-0.8,0.1-1.1,0.4c-0.3,0.3-0.5,0.7-0.6,1.1H160L160,127.2z M163.8,125.5c0.2-0.3,0.4-0.6,0.7-0.7  c0.3-0.2,0.7-0.3,1.1-0.3v1.3h-0.3c-0.5,0-0.9,0.1-1.1,0.4c-0.3,0.3-0.4,0.7-0.4,1.3v3.2h-1.3v-6.1h1.3V125.5L163.8,125.5z   M168.3,125.7v3.4c0,0.2,0.1,0.4,0.2,0.5c0.1,0.1,0.3,0.2,0.6,0.2h0.8v1.1h-1c-0.6,0-1-0.1-1.3-0.4c-0.3-0.3-0.5-0.7-0.5-1.3v-3.4  h-0.7v-1h0.7v-1.5h1.3v1.5h1.5v1H168.3L168.3,125.7z M171.6,123.8c-0.2,0-0.4-0.1-0.6-0.2c-0.2-0.2-0.2-0.3-0.2-0.6  c0-0.2,0.1-0.4,0.2-0.6c0.2-0.2,0.3-0.2,0.6-0.2c0.2,0,0.4,0.1,0.6,0.2c0.2,0.2,0.2,0.4,0.2,0.6c0,0.2-0.1,0.4-0.2,0.6  C172,123.8,171.9,123.8,171.6,123.8L171.6,123.8z M172.3,124.7v6.1H171v-6.1H172.3L172.3,124.7z M175.4,124.7h3.5v6.1h-1.3v-5.1  h-2.3v5.1h-1.3v-5.1h-0.7v-1h0.7v-0.4c0-0.7,0.2-1.2,0.6-1.5c0.4-0.3,1-0.5,1.8-0.5v1.1c-0.4,0-0.7,0.1-0.8,0.2  c-0.2,0.1-0.2,0.4-0.2,0.8V124.7L175.4,124.7z M178.3,123.8c0.2,0,0.4-0.1,0.6-0.2c0.2-0.2,0.2-0.3,0.2-0.6c0-0.2-0.1-0.4-0.2-0.6  c-0.2-0.2-0.3-0.2-0.6-0.2c-0.2,0-0.4,0.1-0.6,0.2c-0.2,0.2-0.2,0.4-0.2,0.6c0,0.2,0.1,0.4,0.2,0.6  C177.9,123.8,178,123.8,178.3,123.8L178.3,123.8z M180.2,127.7c0-0.6,0.1-1.2,0.4-1.7c0.3-0.5,0.6-0.8,1.1-1.1  c0.5-0.3,1-0.4,1.6-0.4c0.7,0,1.4,0.2,1.8,0.5c0.5,0.4,0.8,0.9,1,1.5h-1.4c-0.1-0.3-0.3-0.5-0.5-0.7c-0.2-0.2-0.6-0.3-0.9-0.3  c-0.5,0-0.9,0.2-1.2,0.6c-0.3,0.4-0.5,0.9-0.5,1.5s0.2,1.2,0.5,1.6c0.3,0.4,0.7,0.6,1.2,0.6c0.7,0,1.2-0.3,1.5-1h1.4  c-0.2,0.6-0.5,1.1-1,1.5c-0.5,0.4-1.1,0.6-1.8,0.6c-0.6,0-1.1-0.1-1.6-0.4c-0.5-0.3-0.8-0.6-1.1-1.1  C180.3,128.9,180.2,128.4,180.2,127.7L180.2,127.7z M186.9,127.7c0-0.6,0.1-1.2,0.4-1.6c0.3-0.5,0.6-0.8,1-1.1  c0.4-0.3,0.9-0.4,1.5-0.4c0.5,0,0.9,0.1,1.3,0.3c0.4,0.2,0.6,0.4,0.9,0.7v-0.9h1.3v6.1h-1.3v-0.9c-0.2,0.3-0.5,0.5-0.9,0.7  c-0.4,0.2-0.8,0.3-1.3,0.3c-0.5,0-1-0.1-1.5-0.4c-0.4-0.3-0.8-0.7-1-1.1C187,128.9,186.9,128.3,186.9,127.7L186.9,127.7z   M191.9,127.7c0-0.4-0.1-0.8-0.3-1.1c-0.2-0.3-0.4-0.6-0.7-0.7c-0.3-0.2-0.6-0.2-0.9-0.2c-0.3,0-0.6,0.1-0.9,0.2  c-0.3,0.2-0.5,0.4-0.7,0.7c-0.2,0.3-0.3,0.7-0.3,1.1c0,0.4,0.1,0.8,0.3,1.1c0.2,0.3,0.4,0.6,0.7,0.7c0.3,0.2,0.6,0.3,0.9,0.3  c0.3,0,0.6-0.1,0.9-0.2c0.3-0.2,0.5-0.4,0.7-0.7C191.8,128.5,191.9,128.1,191.9,127.7L191.9,127.7z M194.4,127.7  c0-0.6,0.1-1.2,0.4-1.6c0.3-0.5,0.6-0.8,1-1.1c0.4-0.3,0.9-0.4,1.5-0.4c0.4,0,0.8,0.1,1.2,0.3c0.4,0.2,0.7,0.4,0.9,0.7v-3h1.3v8.3  h-1.3v-0.9c-0.2,0.3-0.5,0.5-0.9,0.7c-0.4,0.2-0.8,0.3-1.3,0.3c-0.5,0-1-0.1-1.5-0.4c-0.4-0.3-0.8-0.7-1-1.1  C194.5,128.9,194.4,128.3,194.4,127.7L194.4,127.7z M199.5,127.7c0-0.4-0.1-0.8-0.3-1.1c-0.2-0.3-0.4-0.6-0.7-0.7  c-0.3-0.2-0.6-0.2-0.9-0.2c-0.3,0-0.6,0.1-0.9,0.2c-0.3,0.2-0.5,0.4-0.7,0.7c-0.2,0.3-0.3,0.7-0.3,1.1c0,0.4,0.1,0.8,0.3,1.1  c0.2,0.3,0.4,0.6,0.7,0.7c0.3,0.2,0.6,0.3,0.9,0.3c0.3,0,0.6-0.1,0.9-0.2c0.3-0.2,0.5-0.4,0.7-0.7  C199.4,128.5,199.5,128.1,199.5,127.7L199.5,127.7z M205.1,130.9c-0.6,0-1.1-0.1-1.6-0.4c-0.5-0.3-0.8-0.6-1.1-1.1  c-0.3-0.5-0.4-1-0.4-1.7c0-0.6,0.1-1.2,0.4-1.7c0.3-0.5,0.7-0.9,1.1-1.1c0.5-0.3,1-0.4,1.6-0.4s1.1,0.1,1.6,0.4  c0.5,0.3,0.9,0.6,1.1,1.1c0.3,0.5,0.4,1,0.4,1.7c0,0.6-0.1,1.2-0.4,1.7c-0.3,0.5-0.7,0.9-1.2,1.1  C206.2,130.8,205.7,130.9,205.1,130.9L205.1,130.9z M205.1,129.8c0.3,0,0.6-0.1,0.9-0.2c0.3-0.2,0.5-0.4,0.7-0.7  c0.2-0.3,0.3-0.7,0.3-1.1c0-0.4-0.1-0.8-0.3-1.1c-0.2-0.3-0.4-0.5-0.7-0.7c-0.3-0.2-0.6-0.2-0.9-0.2c-0.3,0-0.6,0.1-0.9,0.2  c-0.3,0.2-0.5,0.4-0.7,0.7c-0.2,0.3-0.2,0.7-0.2,1.1c0,0.7,0.2,1.2,0.5,1.5C204.1,129.6,204.6,129.8,205.1,129.8L205.1,129.8z   M215,123c0.8,0,1.5,0.2,2.2,0.5c0.6,0.3,1.1,0.8,1.4,1.4c0.3,0.6,0.5,1.3,0.5,2.1s-0.2,1.5-0.5,2.1c-0.3,0.6-0.8,1-1.4,1.3  c-0.6,0.3-1.3,0.5-2.2,0.5h-2.5V123H215L215,123z M215,129.8c0.9,0,1.6-0.2,2.1-0.7c0.5-0.5,0.7-1.2,0.7-2.1c0-0.9-0.2-1.6-0.7-2.1  c-0.5-0.5-1.2-0.8-2.1-0.8h-1.3v5.7H215L215,129.8z M221,123.8c-0.2,0-0.4-0.1-0.6-0.2c-0.2-0.2-0.2-0.3-0.2-0.6  c0-0.2,0.1-0.4,0.2-0.6c0.2-0.2,0.3-0.2,0.6-0.2c0.2,0,0.4,0.1,0.6,0.2c0.2,0.2,0.2,0.4,0.2,0.6c0,0.2-0.1,0.4-0.2,0.6  C221.4,123.8,221.2,123.8,221,123.8L221,123.8z M221.6,124.7v6.1h-1.3v-6.1H221.6L221.6,124.7z M225.8,124.6c0.5,0,0.9,0.1,1.3,0.3  c0.4,0.2,0.7,0.4,0.9,0.7v-0.9h1.3v6.2c0,0.6-0.1,1.1-0.4,1.5c-0.2,0.4-0.6,0.8-1,1c-0.5,0.3-1,0.4-1.6,0.4c-0.8,0-1.5-0.2-2.1-0.6  c-0.6-0.4-0.9-0.9-0.9-1.6h1.3c0.1,0.3,0.3,0.6,0.6,0.8c0.3,0.2,0.7,0.3,1.1,0.3c0.5,0,0.9-0.2,1.2-0.5c0.3-0.3,0.5-0.8,0.5-1.4v-1  c-0.2,0.3-0.5,0.5-0.9,0.7c-0.4,0.2-0.8,0.3-1.3,0.3c-0.5,0-1-0.1-1.5-0.4c-0.4-0.3-0.8-0.7-1-1.1c-0.3-0.5-0.4-1-0.4-1.7  c0-0.6,0.1-1.2,0.4-1.6c0.3-0.5,0.6-0.8,1-1.1C224.7,124.7,225.2,124.6,225.8,124.6L225.8,124.6z M227.9,127.7  c0-0.4-0.1-0.8-0.3-1.1c-0.2-0.3-0.4-0.6-0.7-0.7c-0.3-0.2-0.6-0.2-0.9-0.2c-0.3,0-0.6,0.1-0.9,0.2c-0.3,0.2-0.5,0.4-0.7,0.7  c-0.2,0.3-0.3,0.7-0.3,1.1c0,0.4,0.1,0.8,0.3,1.1c0.2,0.3,0.4,0.6,0.7,0.7c0.3,0.2,0.6,0.3,0.9,0.3c0.3,0,0.6-0.1,0.9-0.2  c0.3-0.2,0.5-0.4,0.7-0.7C227.8,128.5,227.9,128.1,227.9,127.7L227.9,127.7z M231.5,123.8c-0.2,0-0.4-0.1-0.6-0.2  c-0.2-0.2-0.2-0.3-0.2-0.6c0-0.2,0.1-0.4,0.2-0.6c0.2-0.2,0.3-0.2,0.6-0.2c0.2,0,0.4,0.1,0.6,0.2c0.2,0.2,0.2,0.4,0.2,0.6  c0,0.2-0.1,0.4-0.2,0.6C231.9,123.8,231.7,123.8,231.5,123.8L231.5,123.8z M232.1,124.7v6.1h-1.3v-6.1H232.1L232.1,124.7z   M235.3,125.7v3.4c0,0.2,0.1,0.4,0.2,0.5c0.1,0.1,0.3,0.2,0.6,0.2h0.8v1.1h-1c-0.6,0-1-0.1-1.3-0.4c-0.3-0.3-0.5-0.7-0.5-1.3v-3.4  h-0.7v-1h0.7v-1.5h1.3v1.5h1.5v1H235.3L235.3,125.7z M237.5,127.7c0-0.6,0.1-1.2,0.4-1.6c0.3-0.5,0.6-0.8,1-1.1  c0.4-0.3,0.9-0.4,1.5-0.4c0.5,0,0.9,0.1,1.3,0.3c0.4,0.2,0.6,0.4,0.9,0.7v-0.9h1.3v6.1h-1.3v-0.9c-0.2,0.3-0.5,0.5-0.9,0.7  c-0.4,0.2-0.8,0.3-1.3,0.3c-0.5,0-1-0.1-1.5-0.4c-0.4-0.3-0.8-0.7-1-1.1C237.7,128.9,237.5,128.3,237.5,127.7L237.5,127.7z   M242.6,127.7c0-0.4-0.1-0.8-0.3-1.1c-0.2-0.3-0.4-0.6-0.7-0.7c-0.3-0.2-0.6-0.2-0.9-0.2s-0.6,0.1-0.9,0.2  c-0.3,0.2-0.5,0.4-0.7,0.7c-0.2,0.3-0.3,0.7-0.3,1.1c0,0.4,0.1,0.8,0.3,1.1c0.2,0.3,0.4,0.6,0.7,0.7c0.3,0.2,0.6,0.3,0.9,0.3  c0.3,0,0.6-0.1,0.9-0.2c0.3-0.2,0.5-0.4,0.7-0.7C242.5,128.5,242.6,128.1,242.6,127.7L242.6,127.7z M246.8,122.5v8.3h-1.3v-8.3  H246.8z"></path>	<path class="st1" d="M242.6,77c1.4,0,2.5-1.1,2.5-2.5c0-1.4-1.1-2.5-2.5-2.5c-1.4,0-2.5,1.1-2.5,2.5C240.2,75.9,241.3,77,242.6,77z  "></path>	<path class="st1" d="M97.3,65.4c3.2,0,6.4,0.6,9.3,1.9c2.8,1.2,5.4,2.9,7.6,5.1c2.2,2.2,3.9,4.7,5.1,7.6c1.3,3,1.9,6.1,1.9,9.3  c0,2.2-0.3,4.3-0.9,6.4c-0.6,2-1.4,3.9-2.4,5.7c-0.7,1.2-1.5,2.4-2.5,3.5c-0.1-3.1-2.6-5.7-5.7-6c0.4-0.5,0.8-1.1,1.1-1.6  c0.7-1.2,1.2-2.4,1.6-3.8c0.4-1.4,0.6-2.8,0.6-4.2c0-2.1-0.4-4.2-1.2-6.1c-0.8-1.9-1.9-3.6-3.4-5c-1.5-1.5-3.2-2.6-5-3.4  c-1.9-0.8-4-1.2-6.1-1.2c-2.1,0-4.2,0.4-6.1,1.2c-1.9,0.8-3.6,1.9-5,3.4c-1.4,1.5-2.6,3.2-3.4,5c-0.8,2-1.2,4-1.2,6.1  c0,1.4,0.2,2.8,0.6,4.2c0.4,1.3,0.9,2.6,1.6,3.8c0.7,1.2,1.5,2.2,2.4,3.2c0.9,1,2,1.8,3.2,2.5c1.2,0.7,2.4,1.2,3.8,1.6  c1.4,0.4,2.8,0.6,4.2,0.6c1.4,0,2.8-0.2,4.2-0.6c0.6-0.2,1.1-0.3,1.7-0.6c-0.1,0.4-0.1,0.8-0.1,1.2c0,2.8,1.8,5.1,4.3,5.9  c-1.2,0.5-2.4,1-3.6,1.3c-2.1,0.6-4.2,0.9-6.4,0.9c-3.2,0-6.4-0.6-9.4-1.9c-2.8-1.2-5.4-2.9-7.5-5.1c-2.2-2.2-3.9-4.7-5.1-7.6  c-1.3-3-1.9-6.1-1.9-9.3c0-2.1,0.3-4.3,0.8-6.3c0.6-2,1.3-3.9,2.4-5.7c1-1.8,2.3-3.4,3.7-4.8c1.4-1.4,3.1-2.7,4.8-3.7  c1.8-1,3.7-1.8,5.7-2.4C93,65.7,95.1,65.4,97.3,65.4z"></path>	<path class="st1" d="M129.1,66.1c0.4,0.2,0.8,0.4,1.1,0.6c0.2,0.1,0.3,0.3,0.4,0.4l14.6,18.2l14.5-18.2c0.1-0.1,0.2-0.2,0.3-0.3  c0.4-0.3,0.8-0.6,1.3-0.8c0.5-0.2,1-0.3,1.5-0.3c1.1,0,2.1,0.4,2.9,1.2c0,0,0,0,0,0c0.7,0.8,1.1,1.8,1.1,2.8v34.4  c-1.1-1-2.6-1.6-4.2-1.6c-1.5,0-2.9,0.5-4,1.4V81.2l-10.5,13.1c-0.1,0.1-0.1,0.2-0.2,0.2c-0.1,0.1-0.3,0.3-0.5,0.4  c-0.2,0.2-0.4,0.3-0.6,0.4c-0.3,0.1-0.5,0.3-0.8,0.3c-0.3,0.1-0.7,0.1-1,0.1c-0.9,0-1.7-0.3-2.4-0.8c-0.4-0.3-0.8-0.7-1-1.2  l-10.2-12.7v27.5c0,1.1-0.4,2.1-1.2,2.9c-0.8,0.8-1.8,1.2-2.9,1.2c-1.1,0-2.1-0.4-2.9-1.2c-0.8-0.8-1.2-1.8-1.2-2.9V69.8  c0-1.1,0.4-2.1,1.2-2.9c0.8-0.8,1.8-1.2,2.9-1.2c0,0,0.1,0,0.1,0c0,0,0.1,0,0.1,0C128.3,65.7,128.7,65.8,129.1,66.1z"></path>	<path class="st1" d="M194.6,73.6c-0.5,0-1-0.1-1.5-0.1c-2.1,0-4.2,0.4-6.1,1.2c-1.9,0.8-3.6,1.9-5,3.4c-1.4,1.5-2.6,3.2-3.4,5  c-0.8,2-1.2,4-1.2,6.1c0,1.4,0.2,2.8,0.6,4.2c0.4,1.3,0.9,2.6,1.6,3.8c0.7,1.2,1.5,2.2,2.4,3.2c0.9,1,2,1.8,3.2,2.5  c1.2,0.7,2.4,1.2,3.8,1.6c1.4,0.4,2.8,0.6,4.2,0.6c1.4,0,2.8-0.2,4.2-0.6c1.3-0.4,2.6-0.9,3.8-1.6c1.2-0.7,2.2-1.5,3.2-2.5  c1-1,1.8-2,2.5-3.2c0.7-1.2,1.2-2.4,1.6-3.8c0.4-1.4,0.6-2.8,0.6-4.2c0-2.1-0.4-4.2-1.2-6.1c-0.8-1.9-1.9-3.6-3.4-5  c-0.6-0.6-1.2-1.1-1.9-1.6c2.3-0.9,4-3.2,4-5.8c0-0.5-0.1-1-0.2-1.4c1.4,0.9,2.7,2,3.9,3.1c2.2,2.2,3.9,4.7,5.1,7.6  c1.3,3,1.9,6.1,1.9,9.3c0,2.2-0.3,4.3-0.9,6.4c-0.6,2-1.4,3.9-2.4,5.7c-1,1.8-2.3,3.4-3.7,4.9c-1.5,1.5-3.1,2.7-4.9,3.7  c-1.8,1-3.7,1.8-5.7,2.4c-2.1,0.6-4.2,0.9-6.4,0.9c-3.2,0-6.4-0.6-9.4-1.9c-2.8-1.2-5.4-2.9-7.5-5.1c-2.2-2.2-3.9-4.7-5.1-7.6  c-1.3-3-1.9-6.1-1.9-9.3c0-2.1,0.3-4.3,0.8-6.3c0.6-2,1.3-3.9,2.4-5.7c1-1.8,2.3-3.4,3.7-4.8c1.4-1.4,3.1-2.7,4.8-3.7  c1.8-1,3.7-1.8,5.7-2.4c2.1-0.6,4.2-0.9,6.4-0.9c1.1,0,2.3,0.1,3.4,0.2c-1.6,1.1-2.6,3-2.6,5.1C193.9,71.7,194.2,72.7,194.6,73.6z"></path>	<path class="st0" d="M145.7,72c0.5,0.2,0.8,0.6,0.8,1.2c0,0.7-0.6,1.2-1.2,1.2c-0.7,0-1.2-0.6-1.2-1.2c0-0.5,0.3-1,0.8-1.2V60  l-8.9-5.2l-70.3-0.9v-0.9l70.5,0.9l0.1,0.1l9.3,5.3l0.2,0.1V72z"></path>	<path class="st1" d="M217.5,103.8c-0.5-1.1-0.6-2.4,0-3.5c0.4-0.8,1.1-1.4,1.9-1.8c0.1,0,0.1-0.1,0.2-0.1c0.5-0.2,1.1-0.4,1.7-0.4  c1.5,0,2.7,0.9,3.5,2.1c0.1,0.1,0.1,0.2,0.2,0.4c0.3,0.7,0.8,1.3,1.3,1.8c0.6,0.6,1.2,1.1,2,1.5c0.8,0.4,1.7,0.8,2.5,1  c0.9,0.2,1.9,0.4,2.8,0.4c1,0,2-0.2,3-0.5c0.9-0.3,1.8-0.7,2.6-1.3c0.7-0.6,1.3-1.3,1.7-2.1c0.5-0.9,0.6-1.9,0.6-2.9  c0-0.7-0.1-1.4-0.5-2c-0.5-0.7-1-1.3-1.7-1.7c-0.9-0.6-1.9-1.1-3-1.5c-1.3-0.5-2.5-0.9-3.8-1.4c-1.5-0.4-2.9-0.9-4.3-1.4  c-1.6-0.6-3.1-1.4-4.5-2.3c-1.4-1-2.7-2.3-3.6-3.7c-1.1-1.7-1.5-3.6-1.5-5.6c0-2,0.4-4,1.5-5.8c0.9-1.6,2.1-3,3.6-4.1  c1.4-1.1,3-1.9,4.7-2.4c1.7-0.5,3.4-0.8,5.2-0.8c1.4,0,2.8,0.1,4.2,0.5c1.3,0.3,2.6,0.7,3.9,1.4c0.7,0.3,1.3,0.7,1.9,1.1  c-3.1,0.3-5.6,2.8-5.7,6l-0.1,0c-1.3-0.6-2.8-0.8-4.2-0.8c-0.8,0-1.7,0.1-2.5,0.4c-0.8,0.2-1.6,0.6-2.3,1c-0.6,0.4-1.1,1-1.5,1.6  c-0.4,0.6-0.5,1.3-0.5,2c0,0.6,0.1,1.1,0.5,1.6c0.5,0.6,1.1,1.2,1.8,1.6c0.9,0.5,1.8,0.9,2.7,1.2c1,0.3,2,0.6,3,0.9  c0,0,0.1,0,0.1,0c1.7,0.6,3.4,1.2,5,1.9c1.7,0.7,3.3,1.6,4.7,2.6c1.5,1.1,2.7,2.4,3.6,4c1,1.8,1.5,3.8,1.5,5.8  c0,2.2-0.4,4.3-1.4,6.3c-0.9,1.8-2.1,3.4-3.7,4.7c-1.5,1.3-3.3,2.3-5.2,2.9c-1.9,0.7-3.9,1-5.9,1c-1.7,0-3.4-0.2-5.1-0.7  c-1.6-0.5-3.1-1.1-4.5-2c-1.4-0.8-2.6-1.8-3.7-3C219,106.5,218.1,105.2,217.5,103.8z"></path>	<path class="st0" d="M200.1,74.6c2.2,0,3.9-1.8,3.9-3.9c0-2.2-1.8-3.9-3.9-3.9c-2.2,0-3.9,1.8-3.9,3.9  C196.2,72.9,198,74.6,200.1,74.6z"></path>	<path class="st0" d="M162.8,112.7c2.2,0,3.9-1.8,3.9-3.9c0-2.2-1.8-3.9-3.9-3.9c-2.2,0-3.9,1.8-3.9,3.9  C158.9,111,160.6,112.7,162.8,112.7z"></path>	<path class="st0" d="M243.9,78.5c2.2,0,3.9-1.8,3.9-3.9c0-2.2-1.8-3.9-3.9-3.9c-2.2,0-3.9,1.8-3.9,3.9  C239.9,76.7,241.7,78.5,243.9,78.5z"></path>	<path class="st0" d="M109.3,109c2.2,0,3.9-1.8,3.9-3.9c0-2.2-1.8-3.9-3.9-3.9c-2.2,0-3.9,1.8-3.9,3.9  C105.3,107.3,107.1,109,109.3,109z"></path>	<path class="st1" d="M85,95.1c-2.4-5.8-0.6-12.5,4.3-16.3c5-3.8,11.9-3.9,16.9-0.1c0.7,0.5,0.9,1.6,0.3,2.3  c-0.5,0.7-1.6,0.9-2.3,0.3c-3.8-2.9-9.1-2.8-12.9,0.1c-3.8,2.9-5.1,8.1-3.3,12.5c0.3,0.8,0,1.8-0.9,2.1  C86.3,96.3,85.3,95.9,85,95.1z"></path>	<path class="st1" d="M175.7,108.7c9.8,9.1,25,9.1,34.8,0c0.7-0.6,1.7-0.6,2.3,0.1c0.6,0.7,0.6,1.7-0.1,2.3  c-11.1,10.2-28.2,10.2-39.2,0c-0.7-0.6-0.7-1.6-0.1-2.3C174,108.2,175.1,108.1,175.7,108.7z"></path>	<path class="st1" d="M21.6,90.9c-0.5-1.2-0.6-2.5,0-3.6c0.4-0.8,1.1-1.5,1.9-1.9c0.1,0,0.1-0.1,0.2-0.1c0.6-0.2,1.1-0.4,1.7-0.4  c1.5,0,2.8,0.9,3.6,2.1c0.1,0.1,0.1,0.2,0.2,0.4c0.3,0.7,0.8,1.3,1.3,1.9c0.6,0.6,1.3,1.1,2,1.6c0.8,0.5,1.7,0.8,2.6,1  c1,0.2,1.9,0.4,2.9,0.4c1.1,0,2.1-0.2,3.1-0.5c1-0.3,1.9-0.8,2.7-1.4c0.8-0.6,1.3-1.3,1.8-2.2c0.5-0.9,0.6-2,0.6-3  c0-0.7-0.1-1.5-0.5-2.1c-0.5-0.7-1.1-1.3-1.8-1.8c-0.2-0.1-0.3-0.2-0.5-0.3c0-0.1,0-0.2,0-0.4v-2c1.5-1.2,2.4-3.1,2.4-5  c0-0.3,0-0.5,0-0.8c1.3,0.6,2.5,1.3,3.6,2.2c1.5,1.1,2.8,2.5,3.8,4.2c1.1,1.8,1.5,3.9,1.5,6c0,2.3-0.4,4.5-1.5,6.6  c-0.9,1.9-2.2,3.6-3.8,4.9c-1.6,1.3-3.4,2.4-5.4,3c-2,0.7-4.1,1.1-6.2,1.1c-1.8,0-3.6-0.2-5.3-0.7c-1.6-0.5-3.2-1.1-4.7-2  c-1.4-0.8-2.7-1.9-3.8-3.1C23.1,93.8,22.2,92.4,21.6,90.9L21.6,90.9z M34.2,77.5c-0.8-1.1-1.3-2.5-1.3-3.9c0-1.9,0.8-3.6,2.1-4.8  c-0.6-0.2-1.1-0.5-1.6-0.8c-0.7-0.4-1.4-1-1.9-1.6c-0.4-0.5-0.5-1.1-0.5-1.7c0-0.7,0.2-1.4,0.6-2.1c0.4-0.7,0.9-1.2,1.6-1.7  c0.7-0.5,1.5-0.8,2.3-1.1c0.5-0.1,1-0.3,1.6-0.3c0.3,0,0.5,0,0.8,0c1,0,2,0.1,2.9,0.4c0.9,0.2,1.8,0.6,2.6,1c0.8,0.4,1.4,0.9,2,1.6  c1.1,1.1,2.3,3.5,3.1,5.1l0.1,0.1c0.7,1.2,1.3,2.3,1.9,3.2c0.6,0.9,1.2,1.5,1.9,2.1c0.7,0.6,1.5,1.1,2.3,1.5  c0.8,0.4,1.7,0.7,2.5,0.9c0.9,0.2,1.7,0.3,2.5,0.3c0.8,0,1.4-0.1,2.1-0.2s1.4-0.4,2-0.7c0.6-0.3,1.1-0.6,1.6-1  c0.5-0.4,1-0.9,1.4-1.4c0.4-0.5,0.7-1,0.9-1.5c0.2-0.5,0.3-1.1,0.4-1.8c0-0.4,0.1-0.9,0.1-1.4c0.1-1.6,0.1-3.3,0-4.2  c0-0.4,0-4.2,0-4.2c-0.2-11.7-9.8-21.1-21.6-21.1h-17C17.6,38.3,7.9,48,7.9,59.9v32.2c0,11.9,9.7,21.6,21.6,21.6h17  c11.9,0,21.6-9.7,21.6-21.6v-2.7c-1.1,0.9-2.5,1.4-4,1.4c-1.5,0-2.9-0.5-4-1.4v2.7c0,7.5-6.1,13.6-13.6,13.6h-17  c-7.5,0-13.6-6.1-13.6-13.6V59.9c0-7.5,6.1-13.6,13.6-13.6h17c7.3,0,13.2,5.8,13.6,12.9l0,4.8c0,0.7,0.1,1.6,0,2.3l0,0  c0,0.2,0,0.3-0.1,0.5c0,0.2-0.1,0.3-0.1,0.4c-0.1,0.1-0.2,0.2-0.3,0.3c-0.1,0.1-0.3,0.1-0.6,0c-0.2-0.1-0.4-0.2-0.7-0.3  c-0.3-0.2-0.6-0.4-0.9-0.8c-0.3-0.4-0.6-1-1-1.8c-1.1-2.3-2.4-5.1-4.2-7c-0.6-0.6-1.4-1.5-2.1-2c-0.7-0.6-1.2-1-1.5-1.2l0,0l0,0  l0,0l0,0l0,0l0,0l0,0l0,0l0,0l0,0l0,0l0,0h0l0,0l0,0l0,0l0,0l0,0l0,0l0,0l0,0l0,0l0,0l0,0l0,0l0,0l0,0l0,0l0,0l0,0l0,0l0,0l0,0l0,0  l0,0l0,0l0,0l0,0l0,0l0,0l0,0l0,0l0,0l0,0l0,0l0,0l0,0l0,0l0,0l0,0l0,0l0,0l0,0l0,0l0,0l0,0l0,0l0,0l0,0l0,0l0,0l0,0l0,0l0,0l0,0  l0,0l0,0l0,0l0,0l0,0l0,0l0,0l0,0l0,0l0,0l0,0l0,0c-0.1-0.1-0.2-0.1-0.3-0.2l-0.1,0c-0.5-0.3-1-0.6-1.5-0.9c-1.3-0.6-2.6-1.1-4-1.4  c-1.4-0.3-2.8-0.5-4.1-0.5l0,0l-0.1,0h0H38l0,0h-0.1h0h0c-1.8,0-3.6,0.3-5.3,0.9c-1.8,0.6-3.4,1.4-4.9,2.5  c-1.5,1.1-2.8,2.6-3.7,4.2c-1,1.8-1.5,3.9-1.5,6c0,2.1,0.5,4.1,1.6,5.8c1,1.5,2.2,2.8,3.7,3.9c1.4,1,3,1.8,4.7,2.4  C33,77.1,33.6,77.3,34.2,77.5z"></path>	<path class="st0" d="M39.4,69.6c2.2,0,4,1.8,4,4c0,1.6-1,3.1-2.4,3.7v3.4c0,0.9-0.7,1.7-1.7,1.7c-0.9,0-1.7-0.7-1.7-1.7v-3.4  c-1.4-0.6-2.4-2-2.4-3.7C35.4,71.4,37.2,69.6,39.4,69.6z"></path>	<path class="st0" d="M64.1,88.3c2.2,0,4-1.8,4-4c0-2.2-1.8-4-4-4s-4,1.8-4,4C60.1,86.5,61.9,88.3,64.1,88.3z"></path>	<path class="st1" d="M60,39.6v-14c0-11.4-9.3-20.7-20.7-20.7h-2.7c-11.4,0-20.7,9.3-20.7,20.7v14c2.4-1.6,5.1-2.8,8-3.5V25.6  c0-7,5.7-12.7,12.7-12.7h2.7c7,0,12.7,5.7,12.7,12.7v10.5C54.9,36.8,57.6,38,60,39.6z"></path>	<path class="st0" d="M139.5,126c0.7,0,1.2,0.6,1.2,1.2c0,0.7-0.6,1.2-1.2,1.2c-0.5,0-1-0.3-1.2-0.8H42l-0.1-0.1l-5.6-5.6l-0.1-0.1  V117H37v4.5l5.4,5.3h96C138.5,126.3,139,126,139.5,126z"></path></g></svg>