<svg xmlns="http://www.w3.org/2000/svg" xmlns:xlink="http://www.w3.org/1999/xlink" id="Camada_1" x="0px" y="0px" viewBox="0 0 252.4 137.8" style="enable-background:new 0 0 252.4 137.8;" xml:space="preserve"><style type="text/css">	.st0{fill-rule:evenodd;clip-rule:evenodd;fill:#3CB28E;}	.st1{fill-rule:evenodd;clip-rule:evenodd;fill:#1C3F86;}</style><g>	<path class="st0" d="M143.4,124.1c0-0.7,0.2-1.4,0.5-2c0.3-0.6,0.8-1,1.4-1.4c0.6-0.3,1.2-0.5,1.9-0.5c0.8,0,1.5,0.2,2.1,0.6  c0.6,0.4,1.1,0.9,1.3,1.7h-1.5c-0.2-0.4-0.5-0.7-0.8-0.9c-0.3-0.2-0.7-0.3-1.2-0.3c-0.5,0-0.9,0.1-1.3,0.3c-0.4,0.2-0.7,0.5-0.9,1  c-0.2,0.4-0.3,0.9-0.3,1.4c0,0.5,0.1,1,0.3,1.4c0.2,0.4,0.5,0.7,0.9,1c0.4,0.2,0.8,0.3,1.3,0.3c0.4,0,0.8-0.1,1.2-0.3  c0.3-0.2,0.6-0.5,0.8-0.9h1.5c-0.3,0.7-0.7,1.3-1.3,1.6c-0.6,0.4-1.3,0.6-2.1,0.6c-0.7,0-1.3-0.2-1.9-0.5c-0.6-0.3-1-0.8-1.4-1.4  C143.6,125.5,143.4,124.9,143.4,124.1L143.4,124.1z M157.5,124.8c0,0.2,0,0.4,0,0.6h-4.5c0,0.5,0.2,0.8,0.5,1.1  c0.3,0.3,0.7,0.4,1.2,0.4c0.7,0,1.1-0.3,1.4-0.8h1.3c-0.2,0.5-0.5,1-1,1.3c-0.5,0.3-1,0.5-1.7,0.5c-0.6,0-1.1-0.1-1.5-0.4  c-0.4-0.3-0.8-0.6-1-1.1c-0.3-0.5-0.4-1-0.4-1.6s0.1-1.1,0.4-1.6c0.2-0.5,0.6-0.8,1-1.1c0.4-0.3,1-0.4,1.5-0.4  c0.6,0,1.1,0.1,1.5,0.4c0.4,0.2,0.8,0.6,1,1C157.4,123.7,157.5,124.2,157.5,124.8L157.5,124.8z M156.2,124.4c0-0.4-0.2-0.8-0.5-1.1  c-0.3-0.3-0.7-0.4-1.2-0.4c-0.4,0-0.8,0.1-1.1,0.4c-0.3,0.3-0.5,0.6-0.5,1.1H156.2L156.2,124.4z M159.9,122.8  c0.2-0.3,0.4-0.5,0.7-0.7c0.3-0.2,0.6-0.3,1.1-0.3v1.3h-0.3c-0.5,0-0.8,0.1-1.1,0.4c-0.2,0.2-0.4,0.7-0.4,1.3v3.1h-1.2V122h1.2  V122.8L159.9,122.8z M164.2,123v3.3c0,0.2,0.1,0.4,0.2,0.5c0.1,0.1,0.3,0.1,0.5,0.1h0.7v1h-1c-0.5,0-1-0.1-1.3-0.4  c-0.3-0.3-0.4-0.7-0.4-1.3V123h-0.7v-1h0.7v-1.5h1.2v1.5h1.4v1H164.2L164.2,123z M167.4,121.2c-0.2,0-0.4-0.1-0.6-0.2  c-0.2-0.1-0.2-0.3-0.2-0.6c0-0.2,0.1-0.4,0.2-0.6c0.1-0.1,0.3-0.2,0.6-0.2c0.2,0,0.4,0.1,0.5,0.2c0.1,0.2,0.2,0.3,0.2,0.6  c0,0.2-0.1,0.4-0.2,0.6C167.8,121.1,167.6,121.2,167.4,121.2L167.4,121.2z M168,122v5.9h-1.2V122H168L168,122z M171,122h3.4v5.9  h-1.2V123H171v4.9h-1.2V123h-0.7v-1h0.7v-0.4c0-0.7,0.2-1.2,0.5-1.5c0.4-0.3,0.9-0.5,1.7-0.5v1c-0.4,0-0.6,0.1-0.8,0.2  c-0.2,0.1-0.2,0.4-0.2,0.7V122L171,122z M173.8,121.2c0.2,0,0.4-0.1,0.6-0.2c0.1-0.1,0.2-0.3,0.2-0.6c0-0.2-0.1-0.4-0.2-0.6  c-0.1-0.1-0.3-0.2-0.6-0.2c-0.2,0-0.4,0.1-0.5,0.2c-0.1,0.2-0.2,0.3-0.2,0.6c0,0.2,0.1,0.4,0.2,0.6  C173.4,121.1,173.6,121.2,173.8,121.2L173.8,121.2z M175.6,124.9c0-0.6,0.1-1.1,0.4-1.6c0.2-0.5,0.6-0.8,1-1.1  c0.4-0.3,0.9-0.4,1.5-0.4c0.7,0,1.3,0.2,1.8,0.5c0.5,0.3,0.8,0.8,0.9,1.5h-1.3c-0.1-0.3-0.3-0.5-0.5-0.7c-0.2-0.2-0.5-0.2-0.9-0.2  c-0.5,0-0.9,0.2-1.2,0.5c-0.3,0.4-0.4,0.8-0.4,1.5c0,0.6,0.1,1.1,0.4,1.5c0.3,0.4,0.7,0.5,1.2,0.5c0.7,0,1.2-0.3,1.4-0.9h1.3  c-0.2,0.6-0.5,1.1-1,1.4c-0.5,0.4-1.1,0.5-1.8,0.5c-0.6,0-1.1-0.1-1.5-0.4c-0.4-0.3-0.8-0.6-1-1.1  C175.7,126.1,175.6,125.5,175.6,124.9L175.6,124.9z M182,124.9c0-0.6,0.1-1.1,0.4-1.6c0.2-0.5,0.6-0.8,1-1.1  c0.4-0.3,0.9-0.4,1.4-0.4c0.5,0,0.9,0.1,1.2,0.3c0.3,0.2,0.6,0.4,0.8,0.7V122h1.2v5.9h-1.2V127c-0.2,0.3-0.5,0.5-0.8,0.7  c-0.4,0.2-0.8,0.3-1.2,0.3c-0.5,0-1-0.1-1.4-0.4c-0.4-0.3-0.8-0.6-1-1.1C182.1,126,182,125.5,182,124.9L182,124.9z M186.8,124.9  c0-0.4-0.1-0.8-0.3-1.1c-0.2-0.3-0.4-0.5-0.7-0.7c-0.3-0.2-0.6-0.2-0.9-0.2c-0.3,0-0.6,0.1-0.9,0.2c-0.3,0.2-0.5,0.4-0.7,0.7  s-0.3,0.6-0.3,1.1s0.1,0.8,0.3,1.1c0.2,0.3,0.4,0.5,0.7,0.7c0.3,0.2,0.6,0.2,0.9,0.2c0.3,0,0.6-0.1,0.9-0.2  c0.3-0.2,0.5-0.4,0.7-0.7C186.8,125.7,186.8,125.3,186.8,124.9L186.8,124.9z M189.3,124.9c0-0.6,0.1-1.1,0.4-1.6  c0.2-0.5,0.6-0.8,1-1.1c0.4-0.3,0.9-0.4,1.4-0.4c0.4,0,0.8,0.1,1.1,0.3c0.4,0.2,0.7,0.4,0.9,0.7V120h1.2v7.9h-1.2V127  c-0.2,0.3-0.5,0.5-0.8,0.7c-0.4,0.2-0.8,0.3-1.2,0.3c-0.5,0-1-0.1-1.4-0.4c-0.4-0.3-0.8-0.6-1-1.1  C189.4,126,189.3,125.5,189.3,124.9L189.3,124.9z M194.1,124.9c0-0.4-0.1-0.8-0.3-1.1c-0.2-0.3-0.4-0.5-0.7-0.7  c-0.3-0.2-0.6-0.2-0.9-0.2c-0.3,0-0.6,0.1-0.9,0.2c-0.3,0.2-0.5,0.4-0.7,0.7c-0.2,0.3-0.3,0.6-0.3,1.1s0.1,0.8,0.3,1.1  c0.2,0.3,0.4,0.5,0.7,0.7c0.3,0.2,0.6,0.2,0.9,0.2c0.3,0,0.6-0.1,0.9-0.2c0.3-0.2,0.5-0.4,0.7-0.7  C194,125.7,194.1,125.3,194.1,124.9L194.1,124.9z M199.5,128c-0.6,0-1.1-0.1-1.5-0.4c-0.4-0.3-0.8-0.6-1.1-1.1  c-0.3-0.5-0.4-1-0.4-1.6c0-0.6,0.1-1.1,0.4-1.6c0.3-0.5,0.6-0.8,1.1-1.1c0.5-0.3,1-0.4,1.5-0.4c0.6,0,1.1,0.1,1.5,0.4  c0.5,0.2,0.8,0.6,1.1,1.1c0.3,0.5,0.4,1,0.4,1.6c0,0.6-0.1,1.1-0.4,1.6c-0.3,0.5-0.6,0.8-1.1,1.1C200.6,127.8,200.1,128,199.5,128  L199.5,128z M199.5,126.9c0.3,0,0.6-0.1,0.9-0.2c0.3-0.2,0.5-0.4,0.7-0.7c0.2-0.3,0.3-0.7,0.3-1.1c0-0.4-0.1-0.8-0.2-1.1  c-0.2-0.3-0.4-0.5-0.7-0.7c-0.3-0.2-0.6-0.2-0.9-0.2c-0.3,0-0.6,0.1-0.9,0.2c-0.3,0.1-0.5,0.4-0.6,0.7c-0.2,0.3-0.2,0.7-0.2,1.1  c0,0.6,0.2,1.1,0.5,1.5C198.6,126.7,199,126.9,199.5,126.9L199.5,126.9z M209,120.4c0.8,0,1.5,0.2,2.1,0.5c0.6,0.3,1.1,0.7,1.4,1.3  c0.3,0.6,0.5,1.2,0.5,2s-0.2,1.4-0.5,2c-0.3,0.6-0.8,1-1.4,1.3c-0.6,0.3-1.3,0.4-2.1,0.4h-2.4v-7.4H209L209,120.4z M209,126.9  c0.9,0,1.5-0.2,2-0.7c0.5-0.5,0.7-1.1,0.7-2c0-0.9-0.2-1.5-0.7-2c-0.5-0.5-1.1-0.7-2-0.7h-1.2v5.5H209L209,126.9z M214.8,121.2  c-0.2,0-0.4-0.1-0.6-0.2c-0.2-0.1-0.2-0.3-0.2-0.6c0-0.2,0.1-0.4,0.2-0.6c0.1-0.1,0.3-0.2,0.6-0.2c0.2,0,0.4,0.1,0.5,0.2  c0.2,0.2,0.2,0.3,0.2,0.6c0,0.2-0.1,0.4-0.2,0.6C215.2,121.1,215,121.2,214.8,121.2L214.8,121.2z M215.4,122v5.9h-1.2V122H215.4  L215.4,122z M219.4,121.9c0.5,0,0.9,0.1,1.2,0.3c0.4,0.2,0.6,0.4,0.8,0.7V122h1.2v6c0,0.5-0.1,1-0.3,1.5c-0.2,0.4-0.6,0.8-1,1  c-0.4,0.2-0.9,0.4-1.5,0.4c-0.8,0-1.5-0.2-2-0.6c-0.5-0.4-0.8-0.9-0.9-1.5h1.2c0.1,0.3,0.3,0.6,0.6,0.7c0.3,0.2,0.7,0.3,1.1,0.3  c0.5,0,0.9-0.1,1.2-0.4c0.3-0.3,0.5-0.7,0.5-1.3v-1c-0.2,0.3-0.5,0.5-0.8,0.7c-0.4,0.2-0.8,0.3-1.2,0.3c-0.5,0-1-0.1-1.4-0.4  c-0.4-0.3-0.8-0.6-1-1.1c-0.2-0.5-0.4-1-0.4-1.6c0-0.6,0.1-1.1,0.4-1.6c0.2-0.5,0.6-0.8,1-1.1C218.4,122,218.9,121.9,219.4,121.9  L219.4,121.9z M221.4,124.9c0-0.4-0.1-0.8-0.3-1.1c-0.2-0.3-0.4-0.5-0.7-0.7c-0.3-0.2-0.6-0.2-0.9-0.2c-0.3,0-0.6,0.1-0.9,0.2  c-0.3,0.2-0.5,0.4-0.7,0.7c-0.2,0.3-0.3,0.6-0.3,1.1s0.1,0.8,0.3,1.1c0.2,0.3,0.4,0.5,0.7,0.7c0.3,0.2,0.6,0.2,0.9,0.2  c0.3,0,0.6-0.1,0.9-0.2c0.3-0.2,0.5-0.4,0.7-0.7C221.3,125.7,221.4,125.3,221.4,124.9L221.4,124.9z M224.9,121.2  c-0.2,0-0.4-0.1-0.6-0.2c-0.1-0.1-0.2-0.3-0.2-0.6c0-0.2,0.1-0.4,0.2-0.6c0.1-0.1,0.3-0.2,0.6-0.2c0.2,0,0.4,0.1,0.5,0.2  c0.1,0.2,0.2,0.3,0.2,0.6c0,0.2-0.1,0.4-0.2,0.6C225.3,121.1,225.1,121.2,224.9,121.2L224.9,121.2z M225.5,122v5.9h-1.2V122H225.5  L225.5,122z M228.5,123v3.3c0,0.2,0.1,0.4,0.2,0.5c0.1,0.1,0.3,0.1,0.5,0.1h0.7v1h-1c-0.6,0-1-0.1-1.3-0.4  c-0.3-0.3-0.4-0.7-0.4-1.3V123h-0.7v-1h0.7v-1.5h1.2v1.5h1.4v1H228.5L228.5,123z M230.7,124.9c0-0.6,0.1-1.1,0.4-1.6  c0.2-0.5,0.6-0.8,1-1.1c0.4-0.3,0.9-0.4,1.4-0.4c0.5,0,0.9,0.1,1.2,0.3c0.3,0.2,0.6,0.4,0.8,0.7V122h1.2v5.9h-1.2V127  c-0.2,0.3-0.5,0.5-0.8,0.7c-0.4,0.2-0.8,0.3-1.2,0.3c-0.5,0-1-0.1-1.4-0.4c-0.4-0.3-0.8-0.6-1-1.1  C230.8,126,230.7,125.5,230.7,124.9L230.7,124.9z M235.5,124.9c0-0.4-0.1-0.8-0.3-1.1c-0.2-0.3-0.4-0.5-0.7-0.7  c-0.3-0.2-0.6-0.2-0.9-0.2s-0.6,0.1-0.9,0.2c-0.3,0.2-0.5,0.4-0.7,0.7c-0.2,0.3-0.3,0.6-0.3,1.1s0.1,0.8,0.3,1.1  c0.2,0.3,0.4,0.5,0.7,0.7c0.3,0.2,0.6,0.2,0.9,0.2c0.3,0,0.6-0.1,0.9-0.2c0.3-0.2,0.5-0.4,0.7-0.7  C235.4,125.7,235.5,125.3,235.5,124.9L235.5,124.9z M239.5,120v7.9h-1.2V120H239.5z"></path>	<path class="st1" d="M235.5,76.3c1.3,0,2.4-1.1,2.4-2.4c0-1.3-1.1-2.4-2.4-2.4c-1.3,0-2.4,1.1-2.4,2.4  C233.2,75.2,234.2,76.3,235.5,76.3z"></path>	<path class="st1" d="M96.1,65.1c3.1,0,6.1,0.6,9,1.8c2.7,1.2,5.2,2.8,7.3,4.9c2.1,2.1,3.7,4.5,4.9,7.3c1.2,2.8,1.8,5.9,1.8,8.9  c0,2.1-0.3,4.1-0.8,6.1c-0.5,1.9-1.3,3.7-2.3,5.5c-0.7,1.2-1.5,2.3-2.4,3.3c-0.1-3-2.5-5.5-5.5-5.7c0.4-0.5,0.7-1,1.1-1.6  c0.7-1.1,1.2-2.3,1.5-3.6c0.4-1.3,0.5-2.7,0.5-4c0-2-0.4-4-1.2-5.9c-0.8-1.8-1.9-3.4-3.3-4.8c-1.4-1.4-3-2.5-4.8-3.3  c-1.9-0.8-3.8-1.2-5.9-1.2c-2,0-4,0.4-5.9,1.2c-1.8,0.8-3.4,1.9-4.8,3.2c-1.4,1.4-2.5,3-3.2,4.8C81.4,84,81,86,81,88  c0,1.4,0.2,2.7,0.5,4c0.3,1.3,0.9,2.5,1.5,3.6c0.7,1.1,1.4,2.1,2.3,3.1c0.9,0.9,1.9,1.7,3,2.4c1.1,0.7,2.3,1.2,3.6,1.5  c1.3,0.4,2.7,0.5,4,0.5c1.4,0,2.7-0.2,4-0.5c0.5-0.1,1.1-0.3,1.6-0.5c-0.1,0.4-0.1,0.7-0.1,1.1c0,2.7,1.7,4.9,4.1,5.7  c-1.1,0.5-2.3,0.9-3.5,1.3c-2,0.6-4,0.8-6.1,0.8c-3.1,0-6.1-0.6-9-1.8c-2.7-1.2-5.2-2.8-7.2-4.9c-2.1-2.1-3.7-4.6-4.9-7.3  c-1.2-2.8-1.8-5.9-1.8-8.9c0-2.1,0.3-4.1,0.8-6.1c0.5-1.9,1.3-3.8,2.3-5.5c1-1.7,2.2-3.3,3.6-4.7c1.4-1.4,2.9-2.6,4.6-3.6  c1.7-1,3.6-1.8,5.5-2.3C92,65.4,94,65.1,96.1,65.1z"></path>	<path class="st1" d="M126.6,65.8c0.4,0.1,0.7,0.3,1,0.6c0.2,0.1,0.3,0.3,0.4,0.4l14,17.5L156,66.8c0.1-0.1,0.2-0.2,0.3-0.3  c0.4-0.3,0.8-0.6,1.2-0.7c0.5-0.2,0.9-0.3,1.4-0.3c1.1,0,2.1,0.4,2.8,1.1c0,0,0,0,0,0c0.7,0.7,1.1,1.7,1.1,2.7v33  c-1.1-1-2.5-1.5-4-1.5c-1.5,0-2.8,0.5-3.8,1.4V80.3L145,92.9c-0.1,0.1-0.1,0.1-0.2,0.2c-0.1,0.1-0.3,0.3-0.5,0.4  c-0.2,0.1-0.3,0.3-0.5,0.4c-0.3,0.1-0.5,0.3-0.8,0.3c-0.3,0.1-0.6,0.1-1,0.1c-0.8,0-1.6-0.3-2.3-0.8c-0.4-0.3-0.7-0.7-1-1.1  L129,80.3v26.4c0,1-0.4,2-1.1,2.7c-0.7,0.7-1.7,1.1-2.8,1.1s-2-0.4-2.7-1.1c-0.7-0.7-1.1-1.7-1.1-2.7V69.3c0-1,0.4-2,1.1-2.8  c0.7-0.7,1.7-1.1,2.7-1.1c0,0,0.1,0,0.1,0c0,0,0.1,0,0.1,0C125.8,65.4,126.3,65.5,126.6,65.8z"></path>	<path class="st1" d="M189.4,73c-0.5,0-0.9-0.1-1.4-0.1c-2,0-4,0.4-5.9,1.2c-1.8,0.8-3.4,1.9-4.8,3.2c-1.4,1.4-2.5,3-3.2,4.8  C173.3,84,173,86,173,88c0,1.4,0.2,2.7,0.5,4c0.3,1.3,0.9,2.5,1.5,3.6c0.7,1.1,1.4,2.1,2.3,3.1c0.9,0.9,1.9,1.7,3,2.4  c1.1,0.7,2.3,1.2,3.6,1.5c1.3,0.4,2.7,0.5,4,0.5c1.4,0,2.7-0.2,4-0.5c1.3-0.4,2.5-0.9,3.6-1.5c1.1-0.7,2.2-1.5,3.1-2.4  c0.9-0.9,1.7-1.9,2.4-3.1c0.7-1.1,1.2-2.3,1.5-3.6c0.4-1.3,0.5-2.7,0.5-4c0-2-0.4-4-1.2-5.9c-0.8-1.8-1.9-3.4-3.3-4.8  c-0.6-0.6-1.2-1.1-1.8-1.5c2.2-0.9,3.8-3,3.8-5.6c0-0.5-0.1-0.9-0.2-1.4c1.3,0.9,2.6,1.9,3.7,3c2.1,2.1,3.7,4.5,4.9,7.3  c1.2,2.8,1.8,5.9,1.8,8.9c0,2.1-0.3,4.1-0.8,6.1c-0.5,1.9-1.3,3.8-2.3,5.5c-1,1.7-2.2,3.3-3.6,4.7c-1.4,1.4-3,2.6-4.7,3.6  c-1.7,1-3.6,1.8-5.5,2.3c-2,0.6-4,0.8-6.1,0.8c-3.1,0-6.1-0.6-9-1.8c-2.7-1.2-5.2-2.8-7.2-4.9c-2.1-2.1-3.7-4.6-4.9-7.3  c-1.2-2.8-1.8-5.9-1.8-8.9c0-2.1,0.3-4.1,0.8-6.1c0.5-1.9,1.3-3.8,2.3-5.5c1-1.7,2.2-3.3,3.6-4.7c1.4-1.4,2.9-2.6,4.6-3.6  c1.7-1,3.6-1.8,5.5-2.3c2-0.6,4.1-0.8,6.1-0.8c1.1,0,2.2,0.1,3.2,0.2c-1.5,1.1-2.5,2.9-2.5,4.9C188.8,71.2,189,72.1,189.4,73z"></path>	<path class="st0" d="M142.5,71.5c0.5,0.2,0.8,0.6,0.8,1.1c0,0.7-0.5,1.2-1.2,1.2c-0.7,0-1.2-0.5-1.2-1.2c0-0.5,0.3-0.9,0.8-1.1  V59.9l-8.6-4.9l-67.4-0.9v-0.8l67.7,0.9l0.1,0.1l8.9,5.1l0.2,0.1V71.5z"></path>	<path class="st1" d="M211.5,101.9c-0.5-1.1-0.6-2.3,0-3.4c0.4-0.8,1-1.4,1.8-1.8c0.1,0,0.1-0.1,0.2-0.1c0.5-0.2,1-0.4,1.6-0.4  c1.4,0,2.6,0.8,3.3,2c0.1,0.1,0.1,0.2,0.2,0.3c0.3,0.7,0.7,1.2,1.2,1.8c0.6,0.6,1.2,1.1,1.9,1.4c0.8,0.4,1.6,0.7,2.4,1  c0.9,0.2,1.8,0.3,2.7,0.3c1,0,1.9-0.2,2.9-0.5c0.9-0.3,1.7-0.7,2.5-1.3c0.7-0.5,1.2-1.2,1.7-2c0.4-0.9,0.6-1.8,0.6-2.8  c0-0.7-0.1-1.4-0.5-1.9c-0.4-0.7-1-1.2-1.7-1.7c-0.9-0.6-1.9-1.1-2.9-1.5c-1.2-0.5-2.4-0.9-3.7-1.3c-1.4-0.4-2.8-0.8-4.1-1.4  c-1.5-0.6-3-1.3-4.3-2.3c-1.4-1-2.5-2.2-3.5-3.6c-1-1.6-1.5-3.5-1.5-5.4c0-1.9,0.4-3.8,1.4-5.5c0.9-1.5,2-2.8,3.5-3.9  c1.4-1,2.9-1.8,4.5-2.3c1.6-0.5,3.3-0.8,5-0.8c1.4,0,2.7,0.1,4.1,0.4c1.3,0.3,2.5,0.7,3.7,1.3c0.6,0.3,1.3,0.7,1.8,1.1  c-3,0.3-5.4,2.7-5.5,5.8l-0.1,0c-1.3-0.5-2.6-0.8-4-0.8c-0.8,0-1.6,0.1-2.4,0.3c-0.8,0.2-1.5,0.5-2.2,1c-0.6,0.4-1.1,0.9-1.5,1.5  c-0.4,0.6-0.5,1.2-0.5,1.9c0,0.6,0.1,1.1,0.5,1.5c0.5,0.6,1.1,1.1,1.8,1.5c0.8,0.5,1.7,0.9,2.6,1.2c1,0.3,1.9,0.6,2.9,0.9  c0,0,0.1,0,0.1,0c1.6,0.5,3.2,1.2,4.8,1.8c1.6,0.7,3.1,1.5,4.5,2.5c1.4,1,2.6,2.3,3.5,3.8c1,1.7,1.4,3.6,1.4,5.6  c0,2.1-0.4,4.2-1.3,6.1c-0.9,1.7-2,3.3-3.5,4.5c-1.5,1.2-3.1,2.2-5,2.8c-1.8,0.7-3.8,1-5.7,1c-1.7,0-3.3-0.2-4.9-0.7  c-1.5-0.4-3-1.1-4.4-1.9c-1.3-0.8-2.5-1.7-3.5-2.8C212.8,104.5,212,103.3,211.5,101.9z"></path>	<path class="st0" d="M194.8,74c2.1,0,3.8-1.7,3.8-3.8c0-2.1-1.7-3.8-3.8-3.8c-2.1,0-3.8,1.7-3.8,3.8C191,72.3,192.7,74,194.8,74z"></path>	<path class="st0" d="M158.9,110.5c2.1,0,3.8-1.7,3.8-3.8c0-2.1-1.7-3.8-3.8-3.8c-2.1,0-3.8,1.7-3.8,3.8  C155.2,108.9,156.9,110.5,158.9,110.5z"></path>	<path class="st0" d="M236.7,77.7c2.1,0,3.8-1.7,3.8-3.8c0-2.1-1.7-3.8-3.8-3.8c-2.1,0-3.8,1.7-3.8,3.8  C233,76,234.6,77.7,236.7,77.7z"></path>	<path class="st0" d="M107.6,107c2.1,0,3.8-1.7,3.8-3.8c0-2.1-1.7-3.8-3.8-3.8c-2.1,0-3.8,1.7-3.8,3.8  C103.8,105.3,105.5,107,107.6,107z"></path>	<path class="st1" d="M84.2,93.6c-2.3-5.6-0.6-12,4.1-15.7c4.8-3.7,11.4-3.7,16.2-0.1c0.7,0.5,0.8,1.5,0.3,2.2  c-0.5,0.7-1.5,0.8-2.2,0.3c-3.7-2.8-8.8-2.7-12.4,0.1c-3.6,2.8-4.9,7.7-3.2,12c0.3,0.8,0,1.7-0.8,2C85.5,94.8,84.6,94.4,84.2,93.6z  "></path>	<path class="st1" d="M171.3,106.7c9.4,8.7,24,8.7,33.4,0c0.6-0.6,1.6-0.5,2.2,0.1c0.6,0.6,0.5,1.6-0.1,2.2c-10.6,9.8-27,9.8-37.7,0  c-0.6-0.6-0.7-1.6-0.1-2.2C169.7,106.2,170.7,106.1,171.3,106.7z"></path>	<path class="st1" d="M23.4,89.6c-0.5-1.1-0.6-2.4,0-3.5c0.4-0.8,1-1.4,1.9-1.8c0.1,0,0.1-0.1,0.2-0.1c0.5-0.2,1.1-0.4,1.7-0.4  c1.5,0,2.7,0.9,3.5,2.1c0.1,0.1,0.1,0.2,0.2,0.4c0.3,0.7,0.8,1.3,1.3,1.8c0.6,0.6,1.2,1.1,2,1.5c0.8,0.4,1.6,0.8,2.5,1  c0.9,0.2,1.9,0.4,2.8,0.4c1,0,2-0.2,3-0.5c0.9-0.3,1.8-0.7,2.6-1.3c0.7-0.6,1.3-1.3,1.7-2.1c0.5-0.9,0.6-1.9,0.6-2.9  c0-0.7-0.1-1.4-0.5-2c-0.5-0.7-1-1.3-1.7-1.7c-0.1-0.1-0.3-0.2-0.4-0.3c0-0.1,0-0.2,0-0.4v-2c1.4-1.2,2.3-2.9,2.3-4.8  c0-0.3,0-0.5,0-0.8c1.2,0.6,2.4,1.3,3.5,2.1c1.5,1.1,2.7,2.4,3.6,4c1,1.8,1.5,3.8,1.5,5.8c0,2.2-0.4,4.3-1.4,6.3  c-0.9,1.8-2.1,3.4-3.6,4.7c-1.5,1.3-3.3,2.3-5.1,2.9c-1.9,0.7-3.9,1-5.9,1c-1.7,0-3.4-0.2-5.1-0.7c-1.6-0.5-3.1-1.1-4.5-1.9  c-1.4-0.8-2.6-1.8-3.7-3C24.9,92.3,24,91,23.4,89.6L23.4,89.6z M35.5,76.7c-0.8-1.1-1.2-2.4-1.2-3.7c0-1.8,0.8-3.4,2-4.6  c-0.5-0.2-1.1-0.5-1.6-0.8c-0.7-0.4-1.3-0.9-1.8-1.6c-0.4-0.5-0.5-1-0.5-1.6c0-0.7,0.2-1.4,0.5-2c0.4-0.6,0.9-1.2,1.5-1.6  c0.7-0.5,1.4-0.8,2.2-1c0.5-0.1,1-0.2,1.5-0.3c0.3,0,0.5,0,0.8,0c0.9,0,1.9,0.1,2.8,0.4c0.9,0.2,1.7,0.6,2.5,1  c0.7,0.4,1.4,0.9,2,1.5c1,1.1,2.2,3.3,2.9,4.9l0,0.1c0.6,1.2,1.2,2.2,1.8,3.1c0.6,0.8,1.1,1.5,1.8,2c0.7,0.6,1.4,1.1,2.2,1.5  c0.8,0.4,1.6,0.7,2.4,0.9c0.8,0.2,1.6,0.3,2.4,0.3c0.7,0,1.4-0.1,2-0.2c0.7-0.1,1.3-0.4,1.9-0.6c0.6-0.3,1.1-0.6,1.5-1  c0.5-0.4,0.9-0.9,1.3-1.4c0.4-0.5,0.6-0.9,0.8-1.4c0.2-0.5,0.3-1,0.4-1.8c0-0.4,0.1-0.9,0.1-1.3c0.1-1.5,0.1-3.1,0-4.1  c0-0.3,0-4,0-4c-0.2-11.2-9.4-20.3-20.7-20.3H31c-11.4,0-20.7,9.3-20.7,20.7v30.9c0,11.4,9.3,20.7,20.7,20.7h16.3  c11.4,0,20.7-9.3,20.7-20.7v-2.6c-1.1,0.8-2.4,1.3-3.8,1.3c-1.5,0-2.8-0.5-3.8-1.3v2.6c0,7.2-5.9,13-13,13H31c-7.2,0-13-5.9-13-13  V59.8c0-7.2,5.9-13,13-13h16.3c7,0,12.7,5.5,13,12.4l0,4.6c0,0.6,0.1,1.5,0,2.2l0,0c0,0.2,0,0.3-0.1,0.5c0,0.2-0.1,0.3-0.1,0.4  c-0.1,0.1-0.2,0.2-0.3,0.3c-0.1,0.1-0.3,0.1-0.5,0c-0.2,0-0.4-0.2-0.7-0.3c-0.3-0.2-0.6-0.4-0.9-0.8c-0.3-0.4-0.6-1-1-1.7  c-1.1-2.2-2.3-4.9-4.1-6.7c-0.6-0.6-1.4-1.4-2-2c-0.7-0.6-1.2-0.9-1.5-1.1l0,0l0,0l0,0l0,0l0,0l0,0l0,0l0,0l0,0l0,0l0,0l0,0h0l0,0  l0,0l0,0l0,0l0,0l0,0l0,0l0,0l0,0l0,0l0,0l0,0l0,0l0,0l0,0l0,0l0,0l0,0l0,0l0,0l0,0l0,0l0,0l0,0l0,0l0,0l0,0l0,0l0,0l0,0l0,0l0,0  l0,0l0,0l0,0l0,0l0,0l0,0l0,0l0,0l0,0l0,0l0,0l0,0l0,0l0,0l0,0l0,0l0,0l0,0l0,0l0,0l0,0l0,0l0,0l0,0l0,0l0,0l0,0l0,0l0,0l0,0l0,0  l0,0c-0.1-0.1-0.2-0.1-0.3-0.2l-0.1,0c-0.5-0.3-1-0.6-1.5-0.8c-1.2-0.6-2.5-1-3.9-1.3c-1.3-0.3-2.6-0.4-4-0.5l0,0l-0.1,0h0h-0.1  l0,0h-0.1h0h0c-1.7,0-3.5,0.3-5.1,0.8c-1.7,0.5-3.3,1.3-4.7,2.4c-1.5,1.1-2.7,2.5-3.6,4c-1,1.8-1.5,3.7-1.5,5.7  c0,2,0.5,3.9,1.5,5.6c0.9,1.5,2.2,2.7,3.6,3.7c1.4,1,2.9,1.7,4.5,2.3C34.4,76.4,34.9,76.5,35.5,76.7z"></path>	<path class="st0" d="M40.5,69.1c2.1,0,3.9,1.7,3.9,3.9c0,1.6-0.9,2.9-2.3,3.5v3.3c0,0.9-0.7,1.6-1.6,1.6c-0.9,0-1.6-0.7-1.6-1.6  v-3.3c-1.3-0.6-2.3-2-2.3-3.5C36.6,70.9,38.4,69.1,40.5,69.1z"></path>	<path class="st0" d="M64.2,87c2.1,0,3.8-1.7,3.8-3.8c0-2.1-1.7-3.8-3.8-3.8s-3.8,1.7-3.8,3.8C60.3,85.3,62.1,87,64.2,87z"></path>	<path class="st1" d="M60.3,40.3V26.9c0-10.9-9-19.9-19.9-19.9h-2.6C26.9,7,18,15.9,18,26.9v13.5c2.3-1.6,4.9-2.7,7.7-3.4V26.9  c0-6.7,5.5-12.2,12.2-12.2h2.6c6.7,0,12.2,5.5,12.2,12.2V37C55.4,37.6,58,38.8,60.3,40.3z"></path>	<path class="st0" d="M136.6,123.2c0.7,0,1.2,0.5,1.2,1.2c0,0.7-0.5,1.2-1.2,1.2c-0.5,0-1-0.3-1.1-0.8H43l-0.1-0.1l-5.4-5.4  l-0.1-0.1v-4.7h0.8v4.3l5.1,5.1h92.2C135.6,123.6,136.1,123.2,136.6,123.2z"></path></g></svg>